<svg width="375" height="44" viewBox="0 0 375 44" fill="none" xmlns="http://www.w3.org/2000/svg">
<rect width="375" height="44" fill="#1E1E1E"/>
<g id="&#208;&#161;&#208;&#181;&#208;&#186;&#209;&#134;&#208;&#184;&#209;&#143;">
<path d="M-855 -292C-855 -293.105 -854.105 -294 -853 -294H3455C3456.1 -294 3457 -293.105 3457 -292V3153C3457 3154.1 3456.1 3155 3455 3155H-853C-854.104 3155 -855 3154.1 -855 3153V-292Z" fill="#444444"/>
<path d="M-853 -294V-293H3455V-294V-295H-853V-294ZM3457 -292H3456V3153H3457H3458V-292H3457ZM3455 3155V3154H-853V3155V3156H3455V3155ZM-855 3153H-854V-292H-855H-856V3153H-855ZM-853 3155V3154C-853.552 3154 -854 3153.55 -854 3153H-855H-856C-856 3154.66 -854.657 3156 -853 3156V3155ZM3457 3153H3456C3456 3153.55 3455.55 3154 3455 3154V3155V3156C3456.66 3156 3458 3154.66 3458 3153H3457ZM3455 -294V-293C3455.55 -293 3456 -292.552 3456 -292H3457H3458C3458 -293.657 3456.66 -295 3455 -295V-294ZM-853 -294V-295C-854.657 -295 -856 -293.657 -856 -292H-855H-854C-854 -292.552 -853.552 -293 -853 -293V-294Z" fill="white" fill-opacity="0.1"/>
<g id=": : :">
<rect width="375" height="1296" rx="28" fill="white"/>
<g id="NavBar">
<rect width="375" height="44" fill="white"/>
<g id="iOS_StatusBar">
<path id="Up" fill-rule="evenodd" clip-rule="evenodd" d="M40 0L39.3385 0.00535886C17.7701 0.355058 0.351468 17.7758 0.00525235 39.3451L0 40V0H40Z" fill="black"/>
<path id="Up_2" fill-rule="evenodd" clip-rule="evenodd" d="M297 0L296.108 0.216238C294.211 0.676168 292.668 2.07301 292.002 3.9L291.976 3.98777C291.961 4.04716 291.954 4.10809 291.954 4.16932L291.955 4.45738C291.958 5.96365 291.959 6.98959 291.96 7.53521L291.961 8C291.961 20.7025 281.663 31 268.961 31H106.039C93.3365 31 83.0391 20.7025 83.0391 7.96098L83.0457 4.03742L83.0259 3.9645L83.0044 3.9C82.3333 2.08608 80.7796 0.67396 78.8918 0.216238L78 0H297Z" fill="black"/>
<path id="Up_3" fill-rule="evenodd" clip-rule="evenodd" d="M375 0V40L374.995 39.3385C374.645 17.7701 357.224 0.351468 335.655 0.00525235L335 0H375Z" fill="black"/>
<path id="Text&#38;icons" d="M355.335 17C356.807 17 358.001 18.1939 358.001 19.6667V26.3333C358.001 27.8061 356.807 29 355.335 29H338.668C337.195 29 336.001 27.8061 336.001 26.3333V19.6667C336.001 18.1939 337.195 17 338.668 17H355.335ZM354.956 17.5H339.047C337.697 17.5 336.593 18.5086 336.507 19.7837L336.501 19.9444V26.0556C336.501 27.3516 337.552 28.412 338.879 28.4948L339.047 28.5H355.001C356.351 28.5 357.413 27.5416 357.496 26.2705L357.501 26.11V19.9444C357.501 18.5944 356.362 17.5 354.956 17.5ZM295.668 24.3333C296.22 24.3333 296.668 24.781 296.668 25.3333V27.3333C296.668 27.8856 296.22 28.3333 295.668 28.3333H294.668C294.116 28.3333 293.668 27.8856 293.668 27.3333V25.3333C293.668 24.781 294.116 24.3333 294.668 24.3333H295.668ZM300.335 22.3333C300.887 22.3333 301.335 22.781 301.335 23.3333V27.3333C301.335 27.8856 300.887 28.3333 300.335 28.3333H299.335C298.782 28.3333 298.335 27.8856 298.335 27.3333V23.3333C298.335 22.781 298.782 22.3333 299.335 22.3333H300.335ZM305.001 20C305.554 20 306.001 20.4477 306.001 21V27.3333C306.001 27.8856 305.554 28.3333 305.001 28.3333H304.001C303.449 28.3333 303.001 27.8856 303.001 27.3333V21C303.001 20.4477 303.449 20 304.001 20H305.001ZM309.668 17.6667C310.22 17.6667 310.668 18.1144 310.668 18.6667V27.3333C310.668 27.8856 310.22 28.3333 309.668 28.3333H308.668C308.116 28.3333 307.668 27.8856 307.668 27.3333V18.6667C307.668 18.1144 308.116 17.6667 308.668 17.6667H309.668ZM321.122 25.731C322.398 24.6521 324.266 24.6521 325.541 25.731C325.605 25.789 325.643 25.871 325.645 25.9575C325.646 26.044 325.612 26.1274 325.551 26.188L323.553 28.2037C323.495 28.2629 323.415 28.2962 323.332 28.2962C323.248 28.2962 323.169 28.2629 323.11 28.2037L321.112 26.188C321.051 26.1273 321.017 26.0439 321.018 25.9574C321.02 25.8709 321.058 25.789 321.122 25.731ZM354.668 19C355.404 19 356.001 19.597 356.001 20.3333V25.6667C356.001 26.403 355.404 27 354.668 27H339.335C338.598 27 338.001 26.403 338.001 25.6667V20.3333C338.001 19.597 338.598 19 339.335 19H354.668ZM359.001 21C359.607 21.3388 360.001 22.1269 360.001 23C360.001 23.8108 359.662 24.5482 359.128 24.9207L359.001 25V21ZM318.457 23.042C321.205 20.4856 325.461 20.4856 328.209 23.042C328.271 23.1019 328.306 23.1843 328.307 23.2705C328.308 23.3568 328.274 23.4398 328.214 23.501L327.059 24.6677C326.94 24.7868 326.748 24.7893 326.626 24.6733C325.723 23.8561 324.549 23.4036 323.332 23.4037C322.115 23.4042 320.942 23.8567 320.04 24.6733C319.918 24.7893 319.726 24.7868 319.607 24.6677L318.452 23.501C318.391 23.4399 318.358 23.3569 318.358 23.2706C318.359 23.1843 318.395 23.1019 318.457 23.042ZM315.791 20.3603C320.006 16.3208 326.656 16.3208 330.871 20.3603C330.932 20.4203 330.967 20.5022 330.967 20.5878C330.968 20.6734 330.934 20.7556 330.874 20.8163L329.718 21.983C329.599 22.1027 329.406 22.1042 329.285 21.9863C327.679 20.4595 325.548 19.6081 323.332 19.608C321.116 19.608 318.984 20.4594 317.378 21.9863C317.257 22.1044 317.064 22.1029 316.945 21.983L315.788 20.8163C315.728 20.7556 315.695 20.6733 315.695 20.5877C315.696 20.5021 315.73 20.4203 315.791 20.3603Z" fill="black"/>
<path id="Text&#38;icons_2" d="M37.8359 18.3896C39.2783 18.3896 40.4199 19.0732 41.083 20.3379C41.541 21.1514 41.7803 22.2041 41.7803 23.4551C41.7803 26.7773 40.29 28.7393 37.7812 28.7393C35.9766 28.7393 34.6025 27.6729 34.3086 26.0527H36.0654C36.291 26.7979 36.9473 27.2627 37.7949 27.2627C39.2373 27.2627 40.0918 25.916 40.0918 23.6602H39.9756C39.5107 24.5967 38.5742 25.1367 37.4189 25.1367C35.5391 25.1367 34.1719 23.7559 34.1719 21.8555C34.1719 19.832 35.6895 18.3896 37.8359 18.3896ZM53.9146 18.6357V25.1709H55.2476V26.6611H53.9146V28.5H52.2261V26.6611H47.4068V25.0889C48.2955 23.4551 49.6832 21.2607 51.4263 18.6357H53.9146ZM60.9286 18.6357V28.5H59.1649V20.4131H59.0487L56.5946 22.1357V20.4404L59.1717 18.6357H60.9286ZM44.597 25.2939C45.2464 25.2939 45.6907 25.752 45.6907 26.374C45.6907 26.9893 45.2464 27.4541 44.597 27.4541C43.9544 27.4541 43.5032 26.9893 43.5032 26.374C43.5032 25.752 43.9544 25.2939 44.597 25.2939ZM52.2535 20.0713H52.1578C51.2144 21.4658 50.189 23.0859 49.0406 25.1094V25.2119H52.2535V20.0713ZM37.8496 19.8594C36.749 19.8594 35.9014 20.7002 35.9014 21.8008C35.9014 22.9287 36.708 23.7354 37.8428 23.7354C38.9707 23.7354 39.7979 22.9287 39.7979 21.8281C39.7979 20.7139 38.9502 19.8594 37.8496 19.8594ZM44.597 20.1738C45.2464 20.1738 45.6907 20.6318 45.6907 21.2539C45.6907 21.8691 45.2464 22.3271 44.597 22.3271C43.9544 22.3271 43.5032 21.8691 43.5032 21.2539C43.5032 20.6318 43.9544 20.1738 44.597 20.1738Z" fill="black"/>
</g>
</g>
</g>
</g>
</svg>
